# xmcd CD database file
#
# Track frame offsets:
#	150
#	11997
#	29277
#	41260
#	56737
#	69740
#	84640
#	99152
#	119920
#	131022
#	143707
#	158300
#
# Disc length: 2327 seconds
#
# Revision: 0
# Processed by: cddbd v1.4PL0 Copyright (c) Steve Scherf et al.
# Submitted via: CdAid (MTCDDB.DLL V2003.07.15)
#
DISCID=9f09150c
DTITLE=Gayle Strickland - Gayle Strickland
DYEAR=1997
DGENRE=Southern Rock
TTITLE0=Ain't Yu The One
TTITLE1=From Blue To You
TTITLE2=When It Come To Love
TTITLE3=Heartbreak Hall Of Fame
TTITLE4=You Can't Fool Me
TTITLE5=Kimball Corner
TTITLE6=Do You Remember The Night
TTITLE7=Someway, Somehow, Someday
TTITLE8=It Was Too Late
TTITLE9=If It Was Up To Me
TTITLE10=If Love Is All You Need
TTITLE11=That's More Than I Can Say For You
EXTD=Eagle Records ID3G:  56 YEAR: 1997
EXTT0=
EXTT1=
EXTT2=
EXTT3=
EXTT4=
EXTT5=
EXTT6=
EXTT7=
EXTT8=
EXTT9=
EXTT10=
EXTT11=
PLAYORDER=
